<svg id="Layer_1" data-name="Layer 1" xmlns="http://www.w3.org/2000/svg" viewBox="0 0 499.23 397.95"><defs><style>.cls-1{fill:#f5f5f5;}.cls-2{fill:#e0e0e0;}.cls-3{fill:#ebebeb;}.cls-4{fill:#1d1ce4;}.cls-5{opacity:0.2;}.cls-10,.cls-12,.cls-5,.cls-7,.cls-8,.cls-9{isolation:isolate;}.cls-10,.cls-12,.cls-6,.cls-9{fill:#fff;}.cls-7,.cls-9{opacity:0.7;}.cls-8{opacity:0.5;}.cls-10{opacity:0.8;}.cls-11{fill:#455a64;}.cls-12{opacity:0.6;}</style></defs><g id="Floor"><path class="cls-1" d="M784,694c97.48,50.92,255.51,50.92,353,0s97.48-133.48,0-184.4-255.5-50.92-353,0S686.5,643.08,784,694Z" transform="translate(-710.85 -334.24)"/></g><g id="Filing_Cabinets" data-name="Filing Cabinets"><polygon class="cls-2" points="45.9 276.25 14.22 257.96 14.22 190.01 45.9 208.3 45.9 276.25"/><polygon class="cls-3" points="45.9 208.3 91.17 182.17 91.17 250.12 45.9 276.25 45.9 208.3"/><polygon class="cls-1" points="91.17 182.17 45.9 208.3 14.22 190.01 59.48 163.87 91.17 182.17"/><polygon class="cls-2" points="50.43 210.91 86.65 190.01 87.48 190.49 87.48 215.66 51.26 236.57 50.43 236.08 50.43 210.91"/><polygon class="cls-1" points="51.26 211.39 87.48 190.49 87.48 215.66 51.26 236.57 51.26 211.39"/><path class="cls-2" d="M776.32,541.71l6.16-3.56c.8-.46,1.44-.25,1.44.47a2.92,2.92,0,0,1-1.44,2.15l-6.16,3.55c-.8.46-1.45.25-1.45-.47A2.87,2.87,0,0,1,776.32,541.71Z" transform="translate(-710.85 -334.24)"/><polygon class="cls-2" points="49.6 242.76 85.81 221.85 85.81 247.03 86.65 247.51 50.43 268.42 49.6 267.93 49.6 242.76"/><polygon class="cls-1" points="50.43 243.25 86.65 222.33 86.65 247.51 50.43 268.42 50.43 243.25"/><path class="cls-2" d="M775.49,573.56l6.15-3.56c.8-.46,1.45-.25,1.45.47a3,3,0,0,1-1.45,2.15l-6.16,3.55c-.8.46-1.44.25-1.44-.47A2.87,2.87,0,0,1,775.49,573.56Z" transform="translate(-710.85 -334.24)"/><polygon class="cls-2" points="45.9 204.38 14.21 186.08 14.21 118.13 45.9 136.43 45.9 204.38"/><polygon class="cls-3" points="45.9 136.43 91.17 110.29 91.17 178.25 45.9 204.38 45.9 136.43"/><polygon class="cls-1" points="91.17 110.29 45.9 136.43 14.21 118.13 59.48 91.99 91.17 110.29"/><polygon class="cls-2" points="50.43 139.04 86.65 118.13 87.48 118.61 87.48 143.78 51.26 164.69 50.43 164.21 50.43 139.04"/><path class="cls-2" d="M776.32,469.83l6.16-3.59c.79-.46,1.44-.25,1.44.47a2.93,2.93,0,0,1-1.44,2.14l-6.16,3.56c-.8.46-1.45.25-1.45-.47A2.88,2.88,0,0,1,776.32,469.83Z" transform="translate(-710.85 -334.24)"/><polygon class="cls-2" points="49.6 170.89 85.81 149.98 85.81 175.15 86.64 175.63 50.43 196.54 49.6 196.06 49.6 170.89"/><polygon class="cls-1" points="50.43 171.37 86.65 150.46 86.64 175.63 50.43 196.54 50.43 171.37"/><path class="cls-2" d="M775.48,501.68l6.16-3.55c.8-.46,1.45-.25,1.45.47a2.91,2.91,0,0,1-1.45,2.14l-6.16,3.56c-.8.46-1.44.25-1.44-.47A2.85,2.85,0,0,1,775.48,501.68Z" transform="translate(-710.85 -334.24)"/><polygon class="cls-2" points="50.43 139.04 86.65 118.13 86.64 143.3 50.43 164.21 50.43 139.04"/><polygon class="cls-2" points="104.75 130.57 84.93 119.12 84.93 141.3 104.75 152.74 104.75 130.57"/><polygon class="cls-3" points="64.01 167.79 64.01 136.42 71.78 131.92 73.06 133.81 95.7 120.74 95.7 149.49 64.01 167.79"/><polygon class="cls-1" points="64.01 167.79 66.27 140.35 97.96 122.05 95.7 149.49 64.01 167.79"/><polygon class="cls-3" points="68.54 151.48 51.26 141.5 51.26 163.67 68.54 173.65 68.54 151.48"/><polygon class="cls-1" points="68.54 149.49 104.75 128.58 104.75 153.76 68.54 174.66 68.54 149.49"/><path class="cls-2" d="M793.59,479.81l6.16-3.57c.8-.46,1.45-.25,1.45.47a2.91,2.91,0,0,1-1.45,2.14l-6.16,3.56c-.8.46-1.45.25-1.45-.47A2.88,2.88,0,0,1,793.59,479.81Z" transform="translate(-710.85 -334.24)"/><polygon class="cls-2" points="68.54 149.49 67.33 148.8 67.33 173.97 68.54 174.66 68.54 149.49"/><polygon class="cls-3" points="67.33 148.8 103.55 127.89 104.75 128.58 68.54 149.49 67.33 148.8"/><polygon class="cls-2" points="420.22 235.08 388.53 216.79 388.53 148.83 420.22 167.13 420.22 235.08"/><polygon class="cls-3" points="420.22 167.13 465.49 140.99 465.49 208.94 420.22 235.08 420.22 167.13"/><polygon class="cls-1" points="465.49 140.99 420.22 167.13 388.53 148.83 433.8 122.7 465.49 140.99"/><polygon class="cls-2" points="424.75 169.74 460.96 148.83 461.8 149.31 461.8 174.48 425.58 195.39 424.75 194.91 424.75 169.74"/><polygon class="cls-1" points="425.58 170.22 461.8 149.31 461.8 174.48 425.58 195.39 425.58 170.22"/><path class="cls-2" d="M1150.64,500.53l6.15-3.55c.8-.46,1.45-.25,1.45.47a2.91,2.91,0,0,1-1.45,2.14l-6.15,3.56c-.8.46-1.45.25-1.45-.47A2.88,2.88,0,0,1,1150.64,500.53Z" transform="translate(-710.85 -334.24)"/><polygon class="cls-2" points="423.92 201.59 460.13 180.68 460.13 205.85 460.96 206.33 424.75 227.24 423.92 226.76 423.92 201.59"/><polygon class="cls-1" points="424.75 202.07 460.96 181.16 460.96 206.33 424.75 227.24 424.75 202.07"/><path class="cls-2" d="M1149.8,532.38l6.16-3.55c.8-.46,1.45-.25,1.45.47a2.91,2.91,0,0,1-1.45,2.14L1149.8,535c-.8.46-1.45.25-1.45-.47A2.88,2.88,0,0,1,1149.8,532.38Z" transform="translate(-710.85 -334.24)"/></g><g id="Plants"><path class="cls-4" d="M829.57,640.36s.14-17.68-11-30.93c-9.87-11.74-15.12-19.18-12-22.61s9.79-4.26,18.81,5.23,9.71,35.79,8.47,41.74Z" transform="translate(-710.85 -334.24)"/><path class="cls-5" d="M829.57,640.36s.14-17.68-11-30.93c-9.87-11.74-15.12-19.18-12-22.61s9.79-4.26,18.81,5.23,9.71,35.79,8.47,41.74Z" transform="translate(-710.85 -334.24)"/><path class="cls-6" d="M831.5,621.35a.58.58,0,0,1-.55-.44c-3.89-18.24-13.89-28.33-19.54-32.67a.56.56,0,0,1,.69-.88c5.74,4.48,16,14.78,19.94,33.37a.55.55,0,0,1-.42.65h0Z" transform="translate(-710.85 -334.24)"/><path class="cls-4" d="M829.19,646.93l-4.52,2.61a8.2,8.2,0,0,0-6.12-5.22c-4.95-1.16-10.1-.93-13.57-5.23s.75-9,0-12.14-1.26-4.08-7.48-7.25-8.67-8.41-4-12,12.28-1,16.86,2.17c4.08,2.79,8,3.53,12.51,4.09s12,3.1,10.84,13.69A83.58,83.58,0,0,1,829.19,646.93Z" transform="translate(-710.85 -334.24)"/><path class="cls-6" d="M811.76,633a.56.56,0,0,1-.55-.57.54.54,0,0,1,.38-.52c.41-.13,10-3.18,14.12.09a.56.56,0,1,1-.69.87h0c-3.62-2.9-13,.07-13.09.1Z" transform="translate(-710.85 -334.24)"/><path class="cls-6" d="M829.71,646.07a.56.56,0,0,1-.56-.5c-2.48-23.47-30.75-34.6-31-34.71a.56.56,0,0,1-.32-.72.55.55,0,0,1,.7-.33h0c.29.11,29.2,11.48,31.75,35.64a.57.57,0,0,1-.5.61Z" transform="translate(-710.85 -334.24)"/><path class="cls-4" d="M1106.89,631.5c.13-.38,4.91-25,0-42.45-4.5-16-10.27-21.91-18.56-23.21s-11.88,4.67-7.48,12.75,15,18.83,17.59,36.91c1.08,7.44,2,13.9,2,13.9Z" transform="translate(-710.85 -334.24)"/><path class="cls-5" d="M1106.89,631.5c.13-.38,4.91-25,0-42.45-4.5-16-10.27-21.91-18.56-23.21s-11.88,4.67-7.48,12.75,15,18.83,17.59,36.91c1.08,7.44,2,13.9,2,13.9Z" transform="translate(-710.85 -334.24)"/><path class="cls-6" d="M1104.11,617.37h0a.56.56,0,0,1-.52-.59c1.14-19.92-5.39-37.72-17.06-46.44a.55.55,0,0,1-.12-.77h0a.57.57,0,0,1,.78-.11c12,8.94,18.67,27.1,17.5,47.39a.56.56,0,0,1-.57.53Z" transform="translate(-710.85 -334.24)"/><path class="cls-4" d="M1119.73,644.32c-.64-4.58,2-11.45,8.24-13.07s9-5.22,6.79-9.14-1.73-7.52,4-9.16,10.64-4.48,7.37-10.45c-2.37-4.33-2.9-7.14,2.92-15.68,4.82-7.09.88-11.24-5.16-10.46s-9.77,8-13.54,9.19-4.66-5.23-9.64-2.35-4.67,10.24-4.83,15.38-.5,6.3-5,5.67-8.9.11-8.81,11c.07,9.35,5.06,20.91,5.06,20.91Z" transform="translate(-710.85 -334.24)"/><path class="cls-6" d="M1111.83,637.35h-.07a.57.57,0,0,1-.49-.62c3.14-28.08,27.24-51.75,33.52-56.56a.55.55,0,0,1,.77.1h0a.57.57,0,0,1-.1.78c-6.21,4.74-30,28.11-33.09,55.79A.56.56,0,0,1,1111.83,637.35Z" transform="translate(-710.85 -334.24)"/><path class="cls-6" d="M1122.81,607.34a.58.58,0,0,1-.52-.36.56.56,0,0,1,.33-.72h0c9-3.34,19.17-1.77,19.6-1.7a.56.56,0,0,1-.17,1.1c-.11,0-10.33-1.6-19,1.65A1,1,0,0,1,1122.81,607.34Z" transform="translate(-710.85 -334.24)"/><path class="cls-6" d="M1114.81,624.24a.55.55,0,0,1-.42-.19,32.72,32.72,0,0,1-7.33-15.26.55.55,0,0,1,.46-.64h0a.54.54,0,0,1,.62.46h0a32.37,32.37,0,0,0,7.07,14.62.57.57,0,0,1,0,.79.59.59,0,0,1-.37.14Z" transform="translate(-710.85 -334.24)"/></g><g id="Folder_2" data-name="Folder 2"><polygon class="cls-4" points="118.34 140.19 118.34 312.69 294.89 210.76 294.89 53.94 163.6 129.73 159.08 116.67 118.34 140.19"/><polygon class="cls-7" points="118.34 140.19 118.34 312.69 294.89 210.76 294.89 53.94 163.6 129.73 159.08 116.67 118.34 140.19"/><polygon class="cls-2" points="118.34 312.69 127.39 155.87 303.94 53.94 294.89 210.76 118.34 312.69"/><polygon class="cls-4" points="118.34 312.69 131.92 158.48 308.47 56.55 294.89 210.76 118.34 312.69"/><polygon class="cls-7" points="118.34 312.69 131.92 158.48 308.47 56.55 294.89 210.76 118.34 312.69"/></g><g id="Folder_1" data-name="Folder 1"><polygon class="cls-4" points="145.5 155.87 145.5 328.37 322.05 226.44 322.05 69.62 190.77 145.42 186.24 132.35 145.5 155.87"/><polygon class="cls-8" points="145.5 155.87 145.5 328.37 322.05 226.44 322.05 69.62 190.77 145.42 186.24 132.35 145.5 155.87"/><polygon class="cls-2" points="145.5 328.37 154.55 171.55 331.1 69.62 322.05 226.44 145.5 328.37"/><polygon class="cls-4" points="145.5 328.37 159.08 174.17 335.63 72.23 322.05 226.44 145.5 328.37"/><polygon class="cls-8" points="145.5 328.37 159.08 174.17 335.63 72.23 322.05 226.44 145.5 328.37"/></g><g id="Documents"><polygon class="cls-4" points="177.19 346.67 208.87 208.14 385.42 106.21 353.74 244.73 177.19 346.67"/><path class="cls-2" d="M1005.75,717.5c-31.69-18.26-61.09-38.19-74.51-61.53L972,632.45Z" transform="translate(-710.85 -334.24)"/><polygon class="cls-4" points="177.19 174.17 177.19 346.67 353.74 244.73 353.74 87.92 222.45 163.71 217.93 150.64 177.19 174.17"/><polygon class="cls-5" points="177.19 174.17 177.19 346.67 353.74 244.73 353.74 87.92 222.45 163.71 217.93 150.64 177.19 174.17"/><path class="cls-6" d="M938.91,559.41c-.45,0-.51-.51-.51-.82V411.46a3.66,3.66,0,0,1,1.65-2.86L1067.47,335a1.18,1.18,0,0,1,.58-.19c.45,0,.51.51.51.82V482.79a3.73,3.73,0,0,1-1.65,2.87L939.49,559.24A1.34,1.34,0,0,1,938.91,559.41Z" transform="translate(-710.85 -334.24)"/><path class="cls-4" d="M1068,335.41a1,1,0,0,1,0,.25V482.79a3.23,3.23,0,0,1-1.38,2.38L939.21,558.74a.94.94,0,0,1-.23.1,1,1,0,0,1,0-.25V411.46a3.15,3.15,0,0,1,1.38-2.38l127.39-73.57a.6.6,0,0,1,.23-.1m.08-1.17a1.62,1.62,0,0,0-.86.27l-127.43,73.6a4.26,4.26,0,0,0-1.93,3.35V558.59c0,.87.43,1.38,1.07,1.38a1.89,1.89,0,0,0,.86-.27l127.42-73.56a4.28,4.28,0,0,0,1.93-3.35V335.66c0-.87-.43-1.38-1.07-1.38Z" transform="translate(-710.85 -334.24)"/><path class="cls-9" d="M1068,335.41a1,1,0,0,1,0,.25V482.79a3.23,3.23,0,0,1-1.38,2.38L939.21,558.74a.94.94,0,0,1-.23.1,1,1,0,0,1,0-.25V411.46a3.15,3.15,0,0,1,1.38-2.38l127.39-73.57a.6.6,0,0,1,.23-.1m.08-1.17a1.62,1.62,0,0,0-.86.27l-127.43,73.6a4.26,4.26,0,0,0-1.93,3.35V558.59c0,.87.43,1.38,1.07,1.38a1.89,1.89,0,0,0,.86-.27l127.42-73.56a4.28,4.28,0,0,0,1.93-3.35V335.66c0-.87-.43-1.38-1.07-1.38Z" transform="translate(-710.85 -334.24)"/><polygon class="cls-4" points="240.56 82.82 285.83 56.69 285.83 108.96 240.56 135.1 240.56 82.82"/><polygon class="cls-10" points="240.56 82.82 285.83 56.69 285.83 108.96 240.56 135.1 240.56 82.82"/><path class="cls-6" d="M989.9,404v15.68l-1.42.79v-4.8c0-2.65-2.16-3.56-4.82-2l-19.21,11.07c-2.66,1.54-4.82,4.93-4.82,7.59v4.8l-1.42.85V422.3Z" transform="translate(-710.85 -334.24)"/><path class="cls-6" d="M981.17,444c-2.32,1.34-4.21-.07-4.21-3.15V415.67l-5.81,3.17v25.34c0,3.08-1.88,6.66-4.21,8l-4.2,2.43v1.63l22.63-13v-1.7Z" transform="translate(-710.85 -334.24)"/><path class="cls-11" d="M1005.74,388.32c0,1.44,1.3,1.86,2.9.94l44-25.41a5.82,5.82,0,0,0,2.9-4.28c0-1.44-1.3-1.87-2.9-.94l-44,25.4A5.8,5.8,0,0,0,1005.74,388.32Z" transform="translate(-710.85 -334.24)"/><path class="cls-11" d="M1005.74,404c0,1.44,1.3,1.87,2.9.94l44-25.4a5.87,5.87,0,0,0,2.9-4.29c0-1.44-1.3-1.86-2.9-.94l-44,25.4A5.8,5.8,0,0,0,1005.74,404Z" transform="translate(-710.85 -334.24)"/><path class="cls-11" d="M1005.74,419.68c0,1.45,1.3,1.87,2.9.94l44-25.4a5.84,5.84,0,0,0,2.9-4.29c0-1.44-1.3-1.86-2.9-.94l-44,25.41A5.76,5.76,0,0,0,1005.74,419.68Z" transform="translate(-710.85 -334.24)"/><path class="cls-11" d="M1005.74,435.36c0,1.45,1.3,1.87,2.9.95l44-25.41a5.84,5.84,0,0,0,2.9-4.29c0-1.44-1.3-1.86-2.9-.94l-44,25.41A5.76,5.76,0,0,0,1005.74,435.36Z" transform="translate(-710.85 -334.24)"/><path class="cls-11" d="M951.42,482.41c0,1.45,1.3,1.87,2.9,1l98.32-56.78a5.82,5.82,0,0,0,2.9-4.28c0-1.45-1.3-1.87-2.9-1l-98.32,56.78A5.74,5.74,0,0,0,951.42,482.41Z" transform="translate(-710.85 -334.24)"/><path class="cls-11" d="M951.42,498.1c0,1.44,1.3,1.86,2.9.94l98.32-56.8a5.82,5.82,0,0,0,2.9-4.28c0-1.45-1.3-1.87-2.9-.94l-98.32,56.77A5.76,5.76,0,0,0,951.42,498.1Z" transform="translate(-710.85 -334.24)"/><path class="cls-11" d="M951.42,513.78c0,1.44,1.3,1.86,2.9.94L1052.64,458a5.87,5.87,0,0,0,2.9-4.29c0-1.44-1.3-1.87-2.9-.94l-98.32,56.77A5.78,5.78,0,0,0,951.42,513.78Z" transform="translate(-710.85 -334.24)"/><polygon class="cls-4" points="177.19 346.67 208.87 208.14 385.42 106.21 353.74 244.73 177.19 346.67"/><polygon class="cls-4" points="177.19 347.67 208.87 209.14 385.42 107.21 353.74 245.73 177.19 347.67"/><polygon class="cls-4" points="220.38 218.99 220.38 321.73 261.12 298.21 261.12 195.47 220.38 218.99"/><polygon class="cls-5" points="220.38 218.99 220.38 321.73 261.12 298.21 261.12 195.47 220.38 218.99"/><path class="cls-6" d="M1005.78,716.83c-3.46-2.58-36.87-28.11-53.85-64.59-18.08-38.83-18.07-84.11-18.06-101.16v-.53L1055,480.62c0,17.21,0,62.56,18.16,101.52,16.59,35.63,48.73,60.88,53.82,64.73Z" transform="translate(-710.85 -334.24)"/><path class="cls-4" d="M1054.43,481.59c0,17.92.34,62.42,18.21,100.79,16,34.43,46.52,59.19,53.32,64.43l-120.14,69.36c-4.69-3.54-36.85-28.65-53.39-64.17-18-38.71-18-83.91-18-100.92v-.21l120-69.28m1.11-1.93L933.31,550.24c0,16-.34,62.63,18.11,102.24,18.11,38.89,54.33,65,54.33,65L1128,646.91s-36.21-26.14-54.32-65c-18.45-39.62-18.11-86.22-18.11-102.25Z" transform="translate(-710.85 -334.24)"/><path class="cls-9" d="M1054.43,481.59c0,17.92.34,62.42,18.21,100.79,16,34.43,46.52,59.19,53.32,64.43l-120.14,69.36c-4.69-3.54-36.85-28.65-53.39-64.17-18-38.71-18-83.91-18-100.92v-.21l120-69.28m1.11-1.93L933.31,550.24c0,16-.34,62.63,18.11,102.24,18.11,38.89,54.33,65,54.33,65L1128,646.91s-36.21-26.14-54.32-65c-18.45-39.62-18.11-86.22-18.11-102.25Z" transform="translate(-710.85 -334.24)"/><path class="cls-11" d="M1041.72,503.32l-38.66,22.32c-1.6.92-2.86,2.81-2.8,4.23s1.4,1.81,3,.88l38.65-22.32c1.6-.92,2.85-2.81,2.79-4.22S1043.32,502.4,1041.72,503.32Z" transform="translate(-710.85 -334.24)"/><path class="cls-11" d="M1042.54,518.53l-38.65,22.31c-1.6.93-2.81,2.79-2.7,4.17s1.53,1.74,3.13.81L1043,523.51c1.6-.93,2.79-2.79,2.67-4.16S1044.14,517.6,1042.54,518.53Z" transform="translate(-710.85 -334.24)"/><path class="cls-11" d="M1044.06,533.32l-38.63,22.32c-1.6.92-2.75,2.75-2.56,4.08s1.65,1.67,3.25.75l38.65-22.32c1.6-.93,2.73-2.75,2.54-4.09S1045.68,532.39,1044.06,533.32Z" transform="translate(-710.85 -334.24)"/><path class="cls-11" d="M1046.4,547.66,1007.75,570c-1.6.92-2.7,2.72-2.43,4s1.78,1.59,3.38.67l38.65-22.32c1.6-.92,2.67-2.72,2.41-4S1048,546.74,1046.4,547.66Z" transform="translate(-710.85 -334.24)"/><path class="cls-11" d="M1049.55,561.53l-38.66,22.32c-1.6.92-2.63,2.68-2.29,3.93s1.93,1.5,3.53.58L1050.79,566c1.6-.92,2.6-2.68,2.26-3.92S1051.15,560.6,1049.55,561.53Z" transform="translate(-710.85 -334.24)"/><path class="cls-11" d="M1053.57,574.89l-94.21,54.35c-1.6.93-2.57,2.65-2.13,3.84s2.09,1.41,3.69.49l94.21-54.33c1.6-.92,2.53-2.63,2.1-3.83S1055.17,574,1053.57,574.89Z" transform="translate(-710.85 -334.24)"/><path class="cls-11" d="M1058.59,587.65,964.38,642c-1.6.92-2.48,2.6-2,3.74s2.26,1.31,3.86.38l94.21-54.39c1.6-.92,2.46-2.59,1.93-3.73S1060.19,586.72,1058.59,587.65Z" transform="translate(-710.85 -334.24)"/><path class="cls-11" d="M1064.74,599.81l-94.22,54.43c-1.6.93-2.39,2.56-1.76,3.63s2.46,1.2,4.06.28l94.24-54.44c1.6-.92,2.37-2.53,1.73-3.61S1066.33,598.89,1064.74,599.81Z" transform="translate(-710.85 -334.24)"/><path class="cls-11" d="M1072,611.3l-94.22,54.4c-1.59.92-2.31,2.51-1.58,3.53s2.63,1.09,4.23.17l94.21-54.4c1.6-.92,2.29-2.49,1.56-3.51S1073.59,610.38,1072,611.3Z" transform="translate(-710.85 -334.24)"/><path class="cls-11" d="M1080.21,622.24,986,676.63c-1.6.92-2.25,2.47-1.44,3.44s2.78,1,4.38.09l94.22-54.4c1.59-.92,2.22-2.45,1.41-3.42S1081.81,621.31,1080.21,622.24Z" transform="translate(-710.85 -334.24)"/><path class="cls-11" d="M1089.32,632.65l-94.26,54.4c-1.6.92-2.18,2.43-1.29,3.36s2.92.92,4.52,0L1092.51,636c1.59-.93,2.16-2.42,1.27-3.35S1090.92,631.73,1089.32,632.65Z" transform="translate(-710.85 -334.24)"/><path class="cls-11" d="M1099.28,642.6,1005.06,697c-1.6.92-2.12,2.4-1.15,3.29s3.06.84,4.66-.09l94.21-54.39c1.6-.92,2.1-2.38,1.13-3.26S1100.88,641.67,1099.28,642.6Z" transform="translate(-710.85 -334.24)"/><path class="cls-4" d="M989.06,533.73l-44.45,25.66c.49,16.09,2.33,39.33,9.07,62.72l44.44-25.67C991.39,573.06,989.55,549.82,989.06,533.73Z" transform="translate(-710.85 -334.24)"/><path class="cls-10" d="M989.06,533.73l-44.45,25.66c.49,16.09,2.33,39.33,9.07,62.72l44.44-25.67C991.39,573.06,989.55,549.82,989.06,533.73Z" transform="translate(-710.85 -334.24)"/><path class="cls-4" d="M962.74,555.82a7.42,7.42,0,0,0-2.17-5.65l-16,9.22c.13,4.25.36,9,.74,14.13a10.47,10.47,0,0,0,6-1.06C957.66,569.54,962.74,562.09,962.74,555.82Z" transform="translate(-710.85 -334.24)"/><path class="cls-12" d="M962.74,555.82a7.42,7.42,0,0,0-2.17-5.65l-16,9.22c.13,4.25.36,9,.74,14.13a10.47,10.47,0,0,0,6-1.06C957.66,569.54,962.74,562.09,962.74,555.82Z" transform="translate(-710.85 -334.24)"/><path class="cls-4" d="M994.35,581.07h0c-3-3.74-9-15.27-11.57-20.3a1.12,1.12,0,0,0-1.52-.47,1.08,1.08,0,0,0-.54.66,122.16,122.16,0,0,0-4.82,29.28,42.37,42.37,0,0,1-9.43-10.51,1,1,0,0,0-1.4-.22,1,1,0,0,0-.37.53c-4.86,18.72-2.42,37.12-2.42,37.12h0l35.84-20.7C996.64,591.24,995.4,586.14,994.35,581.07Z" transform="translate(-710.85 -334.24)"/><path class="cls-12" d="M994.35,581.07h0c-3-3.74-9-15.27-11.57-20.3a1.12,1.12,0,0,0-1.52-.47,1.08,1.08,0,0,0-.54.66,122.16,122.16,0,0,0-4.82,29.28,42.37,42.37,0,0,1-9.43-10.51,1,1,0,0,0-1.4-.22,1,1,0,0,0-.37.53c-4.86,18.72-2.42,37.12-2.42,37.12h0l35.84-20.7C996.64,591.24,995.4,586.14,994.35,581.07Z" transform="translate(-710.85 -334.24)"/></g></svg>