<svg id="Layer_1" data-name="Layer 1" xmlns="http://www.w3.org/2000/svg" viewBox="0 0 800 600"><defs><style>.cls-1{fill:#f5f5f5;}.cls-2{fill:#1d1ce4;}.cls-3{fill:#feb187;}.cls-4{fill:#a1a1b1;}.cls-5{fill:#fdfdfd;}.cls-6{fill:#5a595d;}.cls-7{fill:#dbd8de;}.cls-8{fill:#7b7f87;}.cls-9{fill:#da9370;}.cls-10{fill:#a9a9f7;}.cls-11{fill:#f6f6fd;}.cls-12{fill:#618b9c;}.cls-13{fill:#75757d;}.cls-14{fill:#c2ecfd;}.cls-15{fill:#32323a;}.cls-16{fill:#fd9919;}</style></defs><path class="cls-1" d="M605.58,839.47c-14.16,0-28.33-.06-42.49.07-2.15,0-2.94-.42-2.52-2.57a10.26,10.26,0,0,0,0-2q0-295.4-.09-590.8c0-3.75.84-4.59,4.59-4.59q395.38.15,790.78,0c3.74,0,4.59.84,4.59,4.59q-.15,295.4,0,590.8c0,3.75-.83,4.65-4.59,4.61-17.49-.24-35-.11-52.49-.11q-17.76-71.28-35.48-142.57c-.9-3.64-1.41-7-6.41-5.08q-3.6-16.5-7.23-33c-.52-2.35-2.08-2-3.88-1.48-6.72,1.78-13.49,3.41-20.24,5.09a5,5,0,0,0-.14-4.36c-2.93-4.62-3.33-10-4.65-15.09-7-27.06-11.6-54.73-20.15-81.41l13-.17c1.65,0,3.3.16,4.94,0,5.36-.41,8.78-3.28,10.37-8.41s-.62-9-4.44-12.13c-3.2-2.64-7-2.49-10.87-2.15a2.14,2.14,0,0,0-.75-.08l-2.16,0-25.86.41-4.2-6.33c0-38,.22-75.92,0-113.87-.07-13.07-7.22-21.41-19.41-24.29-2-15.25-10.52-23.23-24.36-22.83-5.08-1.88-10.34-2.14-15.71-2.11-84.22.37-168.44-.22-252.66.84-30.46.38-60.92.14-91.39.12a25,25,0,0,0-15,4.41c-7.82,5.56-11.14,13.28-11.13,22.73q.12,75.9.14,151.81c-7,1.78-13.29,5.14-19.75,8.12-16.64,7.68-26.65,21.69-33.88,37.66-3.44,7.61-4.78,16.18-7.06,24.32l-16.53,58.85c-1.1,1.15-.93,2.67-1.18,4.06-3.27.23-6.15-1.27-9.06-2.33-2.54-.93-3.83-.23-4.51,2.09-2.63,9-6.62,17.66-8.19,27-2.84-1.23-4.07-.51-5.19,2.68-14.48,41-29.19,81.82-43.8,122.72C606,836.25,605,837.69,605.58,839.47Z" transform="translate(-560.46 -239.58)"/><path class="cls-1" d="M1189.42,839.47H708.55c1.2-3.44,2.42-6.87,3.59-10.32q14.82-43.53,29.65-87c.75-2.2,2.1-4.37-1.26-5.55a13.2,13.2,0,0,1,1.11-5.82c2.33-6.75,4.54-13.54,7.09-20.2,1.23-3.21.74-4.93-2.73-5.81s-7-2.13-10.46-3.21c-3.92-.7-7.84-1.39-11-4.08l.9-4.89c1.93-8.38,4.79-16.06,14-19.1a11.42,11.42,0,0,0,2.39-1.75c7.38-5.09,12.16-12.51,17.57-19.38,3.53,6.72,9.5,10.36,16.3,13a15.13,15.13,0,0,0,.25,3c3.44,12.67,13.22,20.29,26.83,20.18,15-.12,29.92-.55,44.85-.63,101.08-.49,202.16-.26,303.24-.34,3.47,0,4.89,1.09,5.63,4.59,1.78,8.41,3.07,17,6.25,25-4,.41-2.93,2.95-2.32,5.4,6.49,25.77,13,51.52,19.4,77.32C1183.11,813,1187,826.06,1189.42,839.47Z" transform="translate(-560.46 -239.58)"/><path class="cls-2" d="M1261.49,691.82c5-1.9,5.51,1.44,6.41,5.08q17.64,71.31,35.48,142.57h-84a13,13,0,0,0-.18-2q-15.92-63.12-31.85-126.23a5.07,5.07,0,0,1,1.24-.69Q1225.06,701.18,1261.49,691.82Z" transform="translate(-560.46 -239.58)"/><path class="cls-2" d="M605.58,839.47c-.62-1.78.46-3.22,1-4.74C621.2,793.83,635.91,753,650.39,712c1.12-3.19,2.35-3.91,5.19-2.68,5.31,1.74,10.63,3.45,15.93,5.23,16,5.41,32.35,9.78,48.15,15.84-1.33,1-1.43,2.61-1.9,4-8.15,24-16.34,48-24.29,72.09-3.63,11-8.41,21.63-10.91,33Z" transform="translate(-560.46 -239.58)"/><path class="cls-2" d="M1187.38,711.26q15.93,63.12,31.85,126.23a13,13,0,0,1,.18,2h-30c-2.39-13.41-6.31-26.45-9.57-39.66-6.37-25.8-12.91-51.55-19.4-77.32-.61-2.45-1.68-5,2.32-5.4l15.68-4Z" transform="translate(-560.46 -239.58)"/><path class="cls-3" d="M1205.2,561.58c8.55,26.68,13.13,54.35,20.15,81.41,1.32,5.09,1.72,10.47,4.65,15.09a5,5,0,0,1,.14,4.36c-1.45.25-2.92.42-4.35.77q-25.17,6.13-50.34,12.31c-.68-2.88-1.34-5.77-2.08-8.63-.37-1.43-.74-2.83-2.5-3.36-4.41-1.34-8.78-2.82-13.16-4.23a14.11,14.11,0,0,0-6.22-4.87,7.47,7.47,0,0,0-3.24-2.93c-4.79-5.7-10.44-10.61-14.76-16.73-4-5.67-8.18-11.21-12.28-16.81-.78-2.34-1.62-4.64-3.47-6.39-.39-1.79-1.93-2.58-3.13-3.7-14.45-13.39-30.27-25.26-44-39.45l-2.23-4.89c-.06-.71-.12-1.41-.19-2.12.1-3.12,2.21-4.82,4.69-5.91,7.23-3.17,14.45-3.52,21.43.78,2.83,1.74,5.59,3.58,8.39,5.38,4.76,3.55,9.41,7.28,14.74,10a5.69,5.69,0,0,0,3.3,2.31c9.37,8.12,19.68,10.06,31.09,4.72,2.17-.51,4.66-.44,5.66-3.09,7.15-1.94,8.79-7.8,10-14Z" transform="translate(-560.46 -239.58)"/><path class="cls-3" d="M759.41,652.32c-5.4,6.87-10.18,14.29-17.56,19.38a11.42,11.42,0,0,1-2.39,1.75c-9.25,3-12.11,10.72-14,19.1-9.13-2.9-18.18-6.06-27.4-8.63-6.5-1.8-12.67-4.84-19.5-5.43l16.53-58.85c2.28-8.14,3.62-16.71,7.06-24.32,7.23-16,17.24-30,33.88-37.66,6.46-3,12.79-6.34,19.75-8.12,1.52,9.27.52,18.58.55,27.88-5.86.66-10.44,4-15.12,7.14-.51.35-1.22,1.12-1.13,1.54,1.34,6.51.64,13.47,4.3,19.45.28,2.45,1.6,3,3.84,2.28a38.43,38.43,0,0,0,8.26-3.34,8.88,8.88,0,0,0,4.76-1.94,7.08,7.08,0,0,0,4.36-1.86c13.55-5,26.77-10.76,39.94-16.65l3-.64c8.69.45,13.9,4.23,15,10.91,1.27,7.54-2.19,12.83-10.57,16.25-1.53.62-3,1.39-4.49,2.1a3.83,3.83,0,0,0-3.12,1.6c-12.64,4.16-24.57,10.09-36.94,14.93-1.69.66-2.08,2-2.39,3.5-.56,2.59-1,5.21-1.52,7.81-1.37,1.76-1.7,3.94-2.36,6A9.33,9.33,0,0,0,759.41,652.32Z" transform="translate(-560.46 -239.58)"/><path class="cls-4" d="M761.19,602.55a8.81,8.81,0,0,1-4.75,1.94q0-6.16,0-12.34-.09-7.36-.17-14.73c0-9.3,1-18.61-.55-27.88q-.06-75.9-.14-151.81c0-9.45,3.31-17.17,11.13-22.73a25,25,0,0,1,15-4.41c30.47,0,60.93.26,91.39-.12,84.22-1.06,168.44-.47,252.66-.84,5.37,0,10.63.23,15.71,2.11,2.1,1.6,4.25,3.13,6.29,4.8,8.18,6.69,8.35,16.33,8.43,25.47.31,35.87.12,71.74.11,107.61l-4.92-2.95c0-36.16-.34-72.32.11-108.46.19-14.52-10.16-24-23.82-23.86-93.13.79-186.26-.31-279.38,1-21.49.3-43,.59-64.48-.07-14.77-.45-23.64,10.06-23.54,23.4.45,58.81.25,117.62.38,176.43C760.73,584.25,760.16,593.42,761.19,602.55Z" transform="translate(-560.46 -239.58)"/><path class="cls-3" d="M1151.44,506.67l4.92,2.95c3.13,2.26,6.1,4.79,9.83,6.06l19.09,17.05,4.2,6.33-44-.49c-4.53-4.59-10.41-7-16-9.88-2-1.18-3.9-2.39-5.88-3.53-2.54-1.48-3.59-.12-4,2.23-6.24,2.13-10.56,6.83-15.1,11.24h-33.08c-2.07-7.55,1.47-12.75,7-17.25,7.37-6,14.55-12.18,21.95-18.11,5.41-4.33,10-9.91,17.11-11.77l3.07,0c3.69.43,6.88,2.14,10.07,3.9C1137.5,499.19,1144.49,502.91,1151.44,506.67Z" transform="translate(-560.46 -239.58)"/><path class="cls-5" d="M1175.45,675.52q25.17-6.16,50.34-12.31c1.43-.35,2.9-.52,4.35-.77,6.75-1.68,13.52-3.31,20.24-5.09,1.8-.47,3.36-.87,3.88,1.48q3.66,16.49,7.23,33-36.43,9.38-72.87,18.75a5.07,5.07,0,0,0-1.24.69l-8.93,1.86c-1.11-10.26-4.28-20.09-6.44-30.13C1171.2,679.24,1171.15,676.57,1175.45,675.52Z" transform="translate(-560.46 -239.58)"/><path class="cls-6" d="M1145.45,538.57l44,.49,25.86-.41c-2.43,3.2-5.46,5.31-9.64,5.34-16.13-.87-32.28-.15-48.41-.38-2.73,0-3.91,1.22-3.91,3.94s1,4.05,3.81,4q24.22-.17,48.43-.29c1.09.35,2.33.66,2.73,1.83,1.65,4.78,5.47,6.87,9.9,8.29l-13,.17-37.76,0-25.28.1-21.51,0-3.25-.1-14.71.07c-2.8-1.8-5.56-3.64-8.39-5.38-7-4.3-14.2-3.95-21.43-.78-2.48,1.09-4.59,2.79-4.68,5.91-7.07,1.32-12.87-1.31-18.15-5.73-1.76-1.47-3.7-2.72-5.56-4.07,0-.71,0-1.42,0-2.13,7.48-7.33,15.88-12.35,26.92-10.85h33.08Z" transform="translate(-560.46 -239.58)"/><path class="cls-7" d="M1185.28,532.73l-19.09-17.05c0-26.1-.22-52.2,0-78.29.14-14.28-1.32-28.54-.32-42.82,12.19,2.88,19.34,11.22,19.41,24.29C1185.5,456.81,1185.31,494.77,1185.28,532.73Z" transform="translate(-560.46 -239.58)"/><path class="cls-5" d="M725.51,731.67l-5.85-1.27c-15.8-6.06-32.14-10.43-48.15-15.84-5.3-1.78-10.62-3.49-15.93-5.23,1.57-9.36,5.56-18,8.19-27,.68-2.32,2-3,4.51-2.09,2.91,1.06,5.79,2.56,9.06,2.33,2.5.86,5,1.79,7.49,2.57,13.24,4.07,26.24,8.9,39.69,12.32,3.18,2.69,7.1,3.38,11,4.08Q730.53,716.6,725.51,731.67Z" transform="translate(-560.46 -239.58)"/><path class="cls-8" d="M1165.89,394.57c-1,14.28.46,28.54.32,42.82-.24,26.09,0,52.19,0,78.29-3.73-1.27-6.7-3.8-9.83-6.06,0-35.87.2-71.74-.11-107.61-.08-9.14-.25-18.78-8.43-25.47-2-1.67-4.19-3.2-6.29-4.8C1155.37,371.34,1163.88,379.32,1165.89,394.57Z" transform="translate(-560.46 -239.58)"/><path class="cls-4" d="M1205.7,544c4.18,0,7.21-2.14,9.64-5.34l2.16,0c.18.61.44.57.75.08,3.83-.34,7.67-.49,10.87,2.15,3.82,3.15,6.05,6.93,4.44,12.13s-5,8-10.37,8.41c-1.64.12-3.29,0-4.94,0-4.43-1.42-8.25-3.51-9.9-8.29-.4-1.17-1.64-1.48-2.73-1.82C1205.65,548.86,1205.67,546.43,1205.7,544Z" transform="translate(-560.46 -239.58)"/><path class="cls-9" d="M724.52,697.44c-13.45-3.42-26.45-8.25-39.69-12.32-2.52-.78-5-1.71-7.49-2.57.25-1.39.08-2.91,1.18-4.06,6.83.59,13,3.63,19.5,5.43,9.22,2.57,18.27,5.73,27.4,8.63Z" transform="translate(-560.46 -239.58)"/><path class="cls-6" d="M1218.25,538.76c-.31.49-.57.53-.75-.08A2.14,2.14,0,0,1,1218.25,538.76Z" transform="translate(-560.46 -239.58)"/><path class="cls-7" d="M1175.45,675.52c-4.3,1.05-4.25,3.72-3.44,7.47,2.16,10,5.33,19.87,6.44,30.13l-15.68,4c-3.18-8.07-4.47-16.63-6.25-25-.74-3.5-2.16-4.59-5.63-4.59-101.08.08-202.16-.15-303.24.34-14.93.08-29.9.51-44.85.63-13.61.11-23.39-7.51-26.83-20.18a15.92,15.92,0,0,1-.26-2.94c2.83.08,5.66.23,8.48.22,92-.48,184.06.86,276.08-.87,17.64-.34,35.29,0,52.93-.1,9.15,0,18.29-.26,27.43-.4a25.75,25.75,0,0,0,17.08-4.87c4.38,1.42,8.75,2.9,13.16,4.24,1.76.53,2.13,1.93,2.5,3.36C1174.11,669.75,1174.77,672.64,1175.45,675.52Z" transform="translate(-560.46 -239.58)"/><path class="cls-4" d="M1140.63,664.16c-9.14.14-18.28.37-27.43.4-17.64.07-35.29-.24-52.93.1-92,1.73-184,.39-276.08.87-2.82,0-5.65-.14-8.48-.22-6.79-2.63-12.76-6.27-16.29-13a9.23,9.23,0,0,1,2.7-5.83c4.06,10,10.21,14.21,21,14.21q51.48,0,103-.11,119.19-.12,238.38-.27c9,0,17.75-.74,23.76-8.82a7.39,7.39,0,0,1,3.23,2.93c-1.15,1.33-2.25,2.72-3.48,4C1145.8,660.64,1142.22,661.12,1140.63,664.16Z" transform="translate(-560.46 -239.58)"/><path class="cls-7" d="M725.51,731.67q5-15.07,10-30.15c3.48,1.08,6.93,2.31,10.46,3.21s4,2.6,2.73,5.81c-2.55,6.66-4.76,13.45-7.09,20.2a13.2,13.2,0,0,0-1.11,5.82A93.1,93.1,0,0,1,725.51,731.67Z" transform="translate(-560.46 -239.58)"/><path class="cls-10" d="M1044.48,551.61c1.86,1.35,3.8,2.6,5.56,4.07,5.28,4.42,11.08,7.05,18.15,5.73l.18,2.12c-4.33,0-8.66.05-13,.05q-47.48,0-95,0c-1.81,0-4.28-.8-4.2,2.58.07,3,2.26,2.33,3.94,2.33q55.22,0,110.43-.1c13.74,14.19,29.56,26.06,44,39.45,1.2,1.12,2.74,1.91,3.12,3.7,0,5.5-.09,11-.1,16.49,0,6.6,0,6.6-6.81,6.62q-100.69.38-201.4.74c-32,.1-64,0-96,.19-3.92,0-5.21-1-5-5,.32-6,0-12,0-18,1.5-.71,3-1.48,4.49-2.1,8.38-3.42,11.84-8.71,10.57-16.25-1.11-6.68-6.32-10.46-15-10.91Q808.31,495,808,406.58c0-4.78,1.21-6.12,6-6.13q148.59-.22,297.19-.86c4.73,0,6.22,1.11,6.19,6-.18,28.63,0,57.27,0,85.91-7.12,1.86-11.7,7.44-17.11,11.77-7.4,5.93-14.58,12.14-21.95,18.11-5.55,4.5-9.09,9.7-7,17.25-11-1.5-19.44,3.52-26.92,10.85-3.27-.29-6.64,1.6-10.13-.15,1.69-2,4.43-3,3.26-5.86-.75-1.84-2.42-1.44-3.84-1-2.76.93-4.51,2.8-4.28,5.87.21,2.84,2.4,3.85,4.79,4.12C1037.68,552.9,1041.16,553,1044.48,551.61ZM963,422.65c24.65,0,49.3-.06,74,.06,3.55,0,5.32-.4,5.28-4.72,0-4.16-1.78-4.41-5.09-4.41q-74.19.14-148.39,0c-3.56,0-5.29.4-5.27,4.72s1.78,4.41,5.07,4.4C913.36,422.6,938.18,422.65,963,422.65Zm0,51.58h110.4c1.33,0,2.66,0,4,0,1.79,0,2.11-1.18,2.1-2.69s-.42-2.61-2.19-2.61c-1.17,0-2.33,0-3.5,0q-110.65,0-221.3,0c-1.33,0-2.67,0-4,.07-1.87.13-1.86,1.53-1.88,2.92s.51,2.26,2,2.33,2.66.05,4,.05Zm-.48-19.66H852.58c-1.16,0-2.33.05-3.5,0-1.86-.09-2.71.62-2.68,2.6s1.22,2.45,2.91,2.39c1,0,2,0,3,0H1073.1c1.33,0,2.66,0,4-.06,1.84-.11,2-1.48,2-2.87s-.82-2.05-2.21-2-2.66,0-4,0Zm-11.49,29H853.08c-1.16,0-2.33,0-3.5,0-1.65,0-2.9.18-3,2.34-.06,2.43,1.32,2.72,3.19,2.63.66,0,1.33,0,2,0h197.82l3,0c1.55,0,1.89-1,1.92-2.31,0-1.53-.3-2.64-2.14-2.61-1.33,0-2.66,0-4,0ZM963,428c-12.16,0-24.32.12-36.48-.07-3.53-.06-5,.61-5,4.59.07,3.65.9,4.85,4.74,4.82q36.48-.25,73,0c3.55,0,5-.64,4.94-4.6-.07-3.64-.87-4.9-4.74-4.82C987.31,428.18,975.14,428,963,428Zm-40.45,75.4h69.39l3.49,0c1.84,0,2.09-1.22,2.08-2.7s-.48-2.23-2-2.25c-1.17,0-2.33,0-3.5,0H852.23c-1.16,0-2.33,0-3.49,0-1.79,0-2.17,1.14-2.13,2.66,0,1.37.57,2.24,2,2.27s2.67,0,4,0Zm-63.11,67.81c-.06,17.33,13.53,30.77,31.19,30.84,15.27.06,29.69-14.11,29.76-29.26.09-17.66-13.26-31.68-30.34-31.85A30.3,30.3,0,0,0,859.42,571.23Zm122.75-24.76c-1.72-2.16-1.49-5.28-4.5-4-4.21,1.76-6.89-2.11-10.45-2.82-1.44-.29-2.59-2.44-3.71-3.88a3.06,3.06,0,0,1,.39-4.46c1.21-1.18,2.64-1.69,3.92-.26,2,2.23,2.8.48,3.55-1a38.46,38.46,0,0,0,1.79-4.65c.31-.89.87-2.09-.34-2.58s-1.51.87-2.06,1.63c-.89,1.24-.08,4.08-3,3.42a5.75,5.75,0,0,0-7,3.37c-1.37,2.9-.25,5.71,2,7.66,4.1,3.48,2.85,4.8-1.69,5.82-2.45.55-5.92,1.46-4.61,5.09s4.51,2.11,7.32,1.89c2.37-.18,3.81-5.84,7-1.19.25.35,1.33-.73,1.6-1.54s1.3-1.79,1.42-1.06c.34,2.21,4.45.57,3.43,3.81-.63,2-1.55,3-3.62,2.61a1.27,1.27,0,0,0-1.51.88c-.79,1.63-.95,3.3.65,4.51,1.86,1.4,3.2.17,4.05-1.36,1.7-3,3.65-6,2.91-9.79-.17-.87-.12-1.73.83-2.06.76-.26,1.17.22,1.22,1,.06,1-.89,2.67.79,2.89s1.53-1.8,2.19-2.84,1.16-2.44,2.63-2.82c.58,4.63,3.24,6.6,7.72,5.67.93-.19,1.92-1,2.7-.77,2.33.59,3.13.22,2.95-1.83a6.93,6.93,0,0,1,.14-1c.25-4-1.87-5.57-5.63-3.92a25.81,25.81,0,0,0-3.7,2.43c-1.21-1.55-.76-4.43-3.73-4C985.14,541.67,982.54,542.21,982.17,546.47ZM1051,605.35H1076c1.94,0,3.66,0,3.65-2.74s-1.83-2.68-3.7-2.69H1026c-1.92,0-3.64-.08-3.63,2.74s1.79,2.69,3.68,2.69Zm.48-19.83c-8.3,0-16.61,0-24.91,0-1.79,0-4.22-.85-4.14,2.57.07,3,2.18,2.36,3.87,2.37q24.66,0,49.33,0c1.68,0,3.82.65,3.91-2.35.1-3.39-2.34-2.57-4.14-2.58C1067.44,585.49,1059.46,585.52,1051.49,585.52Zm-37-44.77c-4.33,1.64-3.61,6.43-6.19,9.22-1-7.53,1.28-11.11,7.39-12.13.85-.14,1.75,0,1.76-1.16,0-1.45-1.25-1.18-2.15-1.44-4.81-1.37-8.37,2.08-13.27,3.25,7,.46,3.91,4.37,3.38,7.34-.06.33-.15.65-.23,1-1.23,5.31-.16,6.21,5.24,4.83,2.09-.54,4.26-2,6.51-.49s2.29,1.57,2.59-.9c.16-1.31.32-2.63.53-3.94.14-.94.78-2.07-.53-2.55s-1.66.71-2.26,1.49c-1.14,1.48-2.18,3.21-4.44,3.06C1012,545.39,1015.22,544.07,1014.47,540.75Zm8.13,8.72c.25.39-1.07,2.36.6,2.71,2,.42,1.78-1.83,2.33-3,.47-1,.83-2.14,1.24-3.21s2.77-1.66.93-3.08c-1.42-1.1-2.16.62-3.19,1.34C1022.84,545.35,1022.06,546.72,1022.6,549.47Z" transform="translate(-560.46 -239.58)"/><path class="cls-11" d="M1148.25,651.5c-6,8.08-14.77,8.81-23.76,8.82q-119.19.16-238.38.27-51.47.06-103,.11c-10.83,0-17-4.21-21-14.21.65-2,1-4.23,2.35-6a8.56,8.56,0,0,1,1.46,2c3.8,10.78,12.19,14.81,22.78,15,13.3.26,26.6.11,39.91,0,3.13,0,6.8,0,8.78-2.57,4.12-5.33,9.34-9.86,12.1-16.2,1.33-.05,2.66-.14,4-.14q87.71-.15,175.41-.3,42.48-.09,84.95-.3c6.79,0,7.18-.55,7.21-7.54,0-4.17.1-8.33.15-12.49,4.1,5.6,8.28,11.14,12.28,16.81C1137.81,640.89,1143.46,645.8,1148.25,651.5Z" transform="translate(-560.46 -239.58)"/><path class="cls-12" d="M1121.21,618c0,4.16-.13,8.32-.15,12.49,0,7-.42,7.51-7.21,7.54q-42.46.21-84.95.3-87.71.18-175.41.3c-1.33,0-2.66.09-4,.14l-36.93-.12c-7,0-7.09-.09-7.12-6.88q0-8.73-.13-17.47a3.83,3.83,0,0,1,3.12-1.6c0,6,.33,12,0,18-.2,4,1.09,5,5,5,32-.19,64-.09,96-.19q100.7-.31,201.4-.74c6.8,0,6.79,0,6.81-6.62,0-5.49.07-11,.1-16.49C1119.59,613.32,1120.43,615.62,1121.21,618Z" transform="translate(-560.46 -239.58)"/><path class="cls-13" d="M1070.6,568.42q-55.21.06-110.43.1c-1.68,0-3.87.66-3.94-2.33-.08-3.38,2.39-2.58,4.2-2.58q47.48-.06,95,0c4.33,0,8.66,0,13-.05Z" transform="translate(-560.46 -239.58)"/><path class="cls-11" d="M1120.65,561.69l21.51,0c3,2.33,7,2.83,9.65,5.75q0,5.63,0,11.24c-11.41,5.34-21.72,3.4-31.09-4.71Q1120.69,567.84,1120.65,561.69Z" transform="translate(-560.46 -239.58)"/><path class="cls-9" d="M1151.81,567.46c-2.61-2.92-6.67-3.42-9.65-5.75l25.28-.1c-1.17,6.2-2.81,12.06-10,14A8.85,8.85,0,0,0,1151.81,567.46Z" transform="translate(-560.46 -239.58)"/><path class="cls-14" d="M1102.69,561.66l14.71-.07,0,10.08C1112.1,568.94,1107.45,565.21,1102.69,561.66Z" transform="translate(-560.46 -239.58)"/><path class="cls-8" d="M1140.63,664.16c1.59-3,5.17-3.52,7.37-5.76,1.23-1.25,2.33-2.64,3.48-4a14.08,14.08,0,0,1,6.23,4.87A25.8,25.8,0,0,1,1140.63,664.16Z" transform="translate(-560.46 -239.58)"/><path class="cls-4" d="M1151.81,567.46a8.85,8.85,0,0,1,5.67,8.15c-1,2.65-3.49,2.58-5.66,3.09Q1151.82,573.09,1151.81,567.46Z" transform="translate(-560.46 -239.58)"/><path class="cls-12" d="M1117.43,571.67l0-10.08,3.25.1q0,6.15.08,12.3A5.75,5.75,0,0,1,1117.43,571.67Z" transform="translate(-560.46 -239.58)"/><path class="cls-5" d="M805.5,584c-13.17,5.89-26.39,11.67-39.94,16.65-.39-14.45-.59-28.92-.77-43.36-.65-52.79-.26-105.6-.25-158.4a16.29,16.29,0,0,1,.7-5.9c4.48-12,11.31-15.26,25.08-15.29q133.18-.33,266.36-.08c1.4,0,3.39-.8,4.1.8s-.9,3-1.92,4.26c-3.57,4.51-8.23,8.21-10.41,13.77-1.66.06-3.32.18-5,.18l-231.36.79c-7.31,0-7.44.17-7.43,7.71.05,27,.06,54,.19,80.95C805,518.76,805.28,551.4,805.5,584Zm-19.11-66h-.3q0-19.47,0-38.94,0-8.75-.17-17.47c0-2.26-1.08-3.94-3.53-4-2.67-.08-3.86,1.54-3.93,4.09,0,.67,0,1.33,0,2l.18,108.35a18.58,18.58,0,0,0,.08,3c.32,2,1.44,3.39,3.59,3.49,2.44.12,3.65-1.39,4-3.58a26.5,26.5,0,0,0,.09-4Q786.41,544.52,786.39,518.05Z" transform="translate(-560.46 -239.58)"/><path class="cls-11" d="M1048.45,396.49c2.18-5.56,6.84-9.26,10.41-13.77,1-1.29,2.67-2.57,1.92-4.26s-2.7-.8-4.1-.8q-133.19-.06-266.36.08c-13.77,0-20.6,3.3-25.08,15.29a16.29,16.29,0,0,0-.7,5.9c0,52.8-.4,105.61.25,158.4.18,14.44.38,28.91.77,43.36a7.08,7.08,0,0,1-4.36,1.86c-1-9.13-.47-18.3-.49-27.45-.13-58.81.07-117.62-.38-176.43-.1-13.34,8.77-23.85,23.54-23.4,21.48.66,43,.37,64.48.07,93.12-1.3,186.25-.2,279.38-1,13.66-.12,24,9.34,23.82,23.86-.45,36.14-.12,72.3-.11,108.46-7-3.76-13.94-7.48-20.86-11.31-3.19-1.76-6.38-3.47-10.07-3.9q-.06-43.9-.13-87.79c0-6.69-.42-7.05-7.1-7.07Z" transform="translate(-560.46 -239.58)"/><path class="cls-12" d="M1048.45,396.49l64.83.11c6.68,0,7.09.38,7.1,7.07q.09,43.89.13,87.79l-3.07,0c0-28.64-.19-57.28,0-85.91,0-4.89-1.46-6-6.19-6q-148.59.63-297.19.86c-4.82,0-6,1.35-6,6.13q.43,88.41.47,176.82l-3,.64c-.22-32.64-.49-65.28-.64-97.92-.13-27-.14-54-.19-80.95,0-7.54.12-7.68,7.43-7.71l231.36-.79C1045.13,396.67,1046.79,396.55,1048.45,396.49Z" transform="translate(-560.46 -239.58)"/><path class="cls-5" d="M805.32,614.26q.07,8.73.13,17.47c0,6.79.1,6.87,7.12,6.88l36.93.12c-2.76,6.34-8,10.87-12.1,16.2-2,2.58-5.65,2.55-8.78,2.57-13.31.08-26.61.23-39.91,0-10.59-.21-19-4.24-22.78-15a8.56,8.56,0,0,0-1.46-2c.5-2.6,1-5.22,1.52-7.81.31-1.45.7-2.84,2.39-3.5C780.75,624.35,792.68,618.42,805.32,614.26Z" transform="translate(-560.46 -239.58)"/><path class="cls-9" d="M756.29,577.42q.08,7.37.17,14.73c-7.1,1.7-10.22,7-12.12,13.4-3.66-6-3-12.94-4.3-19.45-.09-.42.62-1.19,1.13-1.54C745.85,581.43,750.43,578.08,756.29,577.42Z" transform="translate(-560.46 -239.58)"/><path class="cls-1" d="M744.34,605.55c1.9-6.4,5-11.7,12.12-13.4q0,6.17,0,12.34a38.43,38.43,0,0,1-8.26,3.34C745.94,608.51,744.62,608,744.34,605.55Z" transform="translate(-560.46 -239.58)"/><path class="cls-9" d="M1145.45,538.57l-41,.06c4.54-4.41,8.86-9.11,15.1-11.24,3.07,2.26,6.61.93,9.93,1.3C1135,531.59,1140.92,534,1145.45,538.57Z" transform="translate(-560.46 -239.58)"/><path class="cls-1" d="M1129.47,528.69c-3.32-.37-6.86,1-9.93-1.3.46-2.35,1.51-3.71,4-2.23C1125.57,526.3,1127.51,527.51,1129.47,528.69Z" transform="translate(-560.46 -239.58)"/><path class="cls-8" d="M1205.7,544c0,2.44,0,4.87-.08,7.31q-24.21.13-48.43.28c-2.78,0-3.81-1.37-3.81-4s1.18-4,3.91-3.94C1173.42,543.84,1189.57,543.12,1205.7,544Z" transform="translate(-560.46 -239.58)"/><path class="cls-15" d="M1044.48,551.61c-3.32,1.35-6.8,1.29-10.24.89-2.39-.27-4.58-1.28-4.79-4.12-.23-3.07,1.52-4.94,4.28-5.87,1.42-.48,3.09-.88,3.84,1,1.17,2.89-1.57,3.91-3.26,5.86,3.49,1.75,6.86-.14,10.13.15C1044.45,550.19,1044.47,550.9,1044.48,551.61Z" transform="translate(-560.46 -239.58)"/><path class="cls-16" d="M963,422.65c-24.81,0-49.63,0-74.45.05-3.29,0-5-.21-5.07-4.4s1.71-4.73,5.27-4.72q74.19.14,148.39,0c3.31,0,5.06.25,5.09,4.41,0,4.32-1.73,4.74-5.28,4.72C1012.29,422.59,987.64,422.65,963,422.65Z" transform="translate(-560.46 -239.58)"/><path class="cls-8" d="M963,474.23H852.56c-1.33,0-2.67,0-4-.05s-2-1-2-2.33,0-2.79,1.88-2.92c1.32-.09,2.66-.07,4-.07q110.65,0,221.3,0c1.17,0,2.33,0,3.5,0,1.77,0,2.19,1.07,2.19,2.61s-.31,2.66-2.1,2.69c-1.34,0-2.67,0-4,0Z" transform="translate(-560.46 -239.58)"/><path class="cls-13" d="M962.48,454.57h110.39c1.33,0,2.66,0,4,0s2.23.55,2.21,2-.14,2.76-2,2.87c-1.33.07-2.66.06-4,.06H852.31c-1,0-2,0-3,0-1.69.06-2.88-.28-2.91-2.39s.82-2.69,2.68-2.6c1.17.06,2.34,0,3.5,0Z" transform="translate(-560.46 -239.58)"/><path class="cls-13" d="M951,483.61h97.41c1.34,0,2.67,0,4,0,1.84,0,2.17,1.08,2.14,2.61,0,1.31-.37,2.29-1.92,2.31l-3,0H851.81c-.67,0-1.34,0-2,0-1.87.09-3.25-.2-3.19-2.63.06-2.16,1.31-2.38,3-2.34,1.17,0,2.34,0,3.5,0Z" transform="translate(-560.46 -239.58)"/><path class="cls-16" d="M963,428c12.16,0,24.33.16,36.48-.09,3.87-.08,4.67,1.18,4.74,4.82.07,4-1.39,4.62-4.94,4.6q-36.5-.21-73,0c-3.84,0-4.67-1.17-4.74-4.82-.08-4,1.42-4.65,5-4.59C938.66,428.14,950.82,428,963,428Z" transform="translate(-560.46 -239.58)"/><path class="cls-8" d="M922.53,503.42H852.64c-1.33,0-2.67,0-4,0s-2-.9-2-2.27c0-1.52.34-2.64,2.13-2.66,1.16,0,2.33,0,3.49,0H992c1.17,0,2.33,0,3.5,0,1.5,0,2,.87,2,2.25s-.24,2.68-2.08,2.7l-3.49,0Z" transform="translate(-560.46 -239.58)"/><path class="cls-2" d="M859.42,571.23A30.3,30.3,0,0,1,890,541c17.08.17,30.43,14.19,30.34,31.85-.07,15.15-14.49,29.32-29.76,29.26C873,602,859.36,588.56,859.42,571.23Zm30,27.51c16.17-.36,28.37-13.07,27.77-28.9-.55-14.26-13.22-26-27.81-25.83-15.57.23-27.44,12.69-27.07,28.45C862.69,587,875.11,599.06,889.46,598.74Z" transform="translate(-560.46 -239.58)"/><path class="cls-15" d="M982.17,546.47c.37-4.26,3-4.8,5.71-5.19,3-.42,2.52,2.46,3.73,4a25.81,25.81,0,0,1,3.7-2.43c3.76-1.65,5.88-.12,5.63,3.92a6.93,6.93,0,0,0-.14,1c.18,2.05-.62,2.42-2.95,1.83-.78-.2-1.77.58-2.7.77-4.48.93-7.14-1-7.72-5.67-1.47.38-1.94,1.73-2.63,2.82s-.39,3.08-2.19,2.84-.73-1.85-.79-2.89c-.05-.79-.46-1.27-1.22-1-1,.33-1,1.19-.83,2.06.74,3.77-1.21,6.77-2.91,9.79-.85,1.53-2.19,2.76-4.05,1.36-1.6-1.21-1.44-2.88-.65-4.51a1.27,1.27,0,0,1,1.51-.88c2.07.35,3-.61,3.62-2.61,1-3.24-3.09-1.6-3.43-3.81-.12-.73-1.15.27-1.42,1.06s-1.35,1.89-1.6,1.54c-3.18-4.65-4.62,1-7,1.19-2.81.22-6.06,1.62-7.32-1.89s2.16-4.54,4.61-5.09c4.54-1,5.79-2.34,1.69-5.82-2.29-2-3.41-4.76-2-7.66a5.75,5.75,0,0,1,7-3.37c2.88.66,2.07-2.18,3-3.42.55-.76.79-2.15,2.06-1.63s.65,1.69.34,2.58a38.46,38.46,0,0,1-1.79,4.65c-.75,1.5-1.54,3.25-3.55,1-1.28-1.43-2.71-.92-3.92.26a3.06,3.06,0,0,0-.39,4.46c1.12,1.44,2.27,3.59,3.71,3.88,3.56.71,6.24,4.58,10.45,2.82C980.68,541.19,980.45,544.31,982.17,546.47Zm-16.84-.06c-2.25.27-4.51.49-6.18,2.71,3,1,5.09-.07,6.86-2.06.3-.4.6-.83,0-1.17C965.9,545.84,965.56,546.23,965.33,546.41Z" transform="translate(-560.46 -239.58)"/><path class="cls-8" d="M1051,605.34h-25c-1.89,0-3.66.14-3.68-2.69s1.71-2.74,3.63-2.74h49.89c1.87,0,3.7-.14,3.7,2.69s-1.71,2.75-3.65,2.74Z" transform="translate(-560.46 -239.58)"/><path class="cls-13" d="M1051.49,585.52c8,0,16,0,23.92,0,1.8,0,4.24-.81,4.14,2.58-.09,3-2.23,2.35-3.91,2.35q-24.66.06-49.33,0c-1.69,0-3.8.64-3.87-2.37-.08-3.42,2.35-2.56,4.14-2.57C1034.88,585.49,1043.19,585.52,1051.49,585.52Z" transform="translate(-560.46 -239.58)"/><path class="cls-15" d="M1014.47,540.75c.75,3.32-2.52,4.64-1.67,7.56,2.26.15,3.3-1.58,4.44-3.06.6-.78,1.07-1.92,2.26-1.49s.67,1.61.53,2.55c-.21,1.31-.37,2.63-.53,3.94-.3,2.47-.27,2.43-2.59.9s-4.42,0-6.51.49c-5.4,1.38-6.47.48-5.24-4.83.08-.33.17-.65.23-1,.53-3,3.65-6.88-3.38-7.34,4.9-1.17,8.46-4.62,13.27-3.25.9.26,2.15,0,2.15,1.44,0,1.13-.91,1-1.76,1.16-6.11,1-8.37,4.6-7.39,12.13C1010.86,547.18,1010.14,542.39,1014.47,540.75Z" transform="translate(-560.46 -239.58)"/><path class="cls-15" d="M1022.6,549.47c-.54-2.75.24-4.12,1.91-5.29,1-.72,1.77-2.44,3.19-1.34,1.84,1.42-.54,2-.93,3.08s-.77,2.17-1.24,3.21c-.55,1.22-.32,3.47-2.33,3C1021.53,551.83,1022.85,549.86,1022.6,549.47Z" transform="translate(-560.46 -239.58)"/><path class="cls-15" d="M786.39,518.05q0,26.48,0,52.93a26.5,26.5,0,0,1-.09,4c-.36,2.19-1.57,3.7-4,3.58-2.15-.1-3.27-1.48-3.59-3.49a18.58,18.58,0,0,1-.08-3l-.18-108.35c0-.67,0-1.33,0-2,.07-2.55,1.26-4.17,3.93-4.09,2.45.07,3.49,1.75,3.53,4q.17,8.73.17,17.47,0,19.47,0,38.94Z" transform="translate(-560.46 -239.58)"/><path class="cls-10" d="M889.46,598.74c-14.35.32-26.77-11.72-27.11-26.28-.37-15.76,11.5-28.22,27.07-28.45,14.59-.2,27.26,11.57,27.81,25.83C917.83,585.67,905.63,598.38,889.46,598.74Zm.11-41.47a14.19,14.19,0,1,0,.32,28.37,14.19,14.19,0,1,0-.32-28.37Zm-.46-5.79c7.63,0,13.06,3.06,17.17,8.64.66.89,1.35,2.3,2.67,1.06.95-.89-.12-1.83-.64-2.58-4.63-6.63-11.16-10-19.11-9.81-8.14.22-14.58,4.09-18.9,11.14-.59,1-1.63,2.2-.31,3.06,1.57,1,1.85-.84,2.37-1.66C876.42,555,882.13,551.58,889.11,551.48ZM877.86,588.9c5,6.09,18.1,6.58,22,.09C891.93,593.3,884.87,591.68,877.86,588.9Z" transform="translate(-560.46 -239.58)"/><path class="cls-10" d="M966,547.07c-1.77,2-3.83,3.06-6.86,2,1.67-2.22,3.93-2.44,6.18-2.71C965.55,546.64,965.77,546.86,966,547.07Z" transform="translate(-560.46 -239.58)"/><path class="cls-10" d="M965.33,546.41c.23-.18.57-.57.67-.52.61.34.31.77,0,1.17A8.31,8.31,0,0,1,965.33,546.41Z" transform="translate(-560.46 -239.58)"/><path class="cls-2" d="M889.57,557.27a14.19,14.19,0,1,1-14.08,14.33A14,14,0,0,1,889.57,557.27Z" transform="translate(-560.46 -239.58)"/><path class="cls-2" d="M889.11,551.48c-7,.1-12.69,3.47-16.75,9.85-.52.82-.8,2.7-2.37,1.66-1.32-.86-.28-2.11.31-3.06,4.32-7,10.76-10.92,18.9-11.14,7.95-.22,14.48,3.18,19.11,9.81.52.75,1.59,1.69.64,2.58-1.32,1.24-2-.17-2.67-1.06C902.17,554.54,896.74,551.52,889.11,551.48Z" transform="translate(-560.46 -239.58)"/><path class="cls-2" d="M682.56,839.47c2.5-11.37,7.28-22,10.91-33,7.95-24.08,16.14-48.08,24.29-72.09.47-1.37.57-3,1.9-4l5.85,1.27a93.1,93.1,0,0,0,15,4.89c3.36,1.18,2,3.35,1.26,5.55q-14.87,43.5-29.65,87c-1.17,3.45-2.39,6.88-3.59,10.32Z" transform="translate(-560.46 -239.58)"/><path class="cls-2" d="M877.86,588.9c7,2.78,14.07,4.4,22,.09C896,595.48,882.88,595,877.86,588.9Z" transform="translate(-560.46 -239.58)"/></svg>